<svg xmlns="http://www.w3.org/2000/svg" width="24" height="24" viewBox="0 0 24 24"><path fill="white" d="M5 21q-.825 0-1.413-.588T3 19V6.5q0-.375.125-.675t.325-.575l1.4-1.7q.2-.275.5-.413T6 3h12q.35 0 .65.137t.5.413l1.4 1.7q.2.275.325.575T21 6.5V19q0 .825-.588 1.413T19 21H5Zm.4-15h13.2l-.85-1H6.25L5.4 6ZM12 17.575q.2 0 .375-.062t.325-.213l2.6-2.6q.275-.275.275-.7t-.275-.7q-.275-.275-.7-.275t-.7.275l-.9.9V11q0-.425-.288-.713T12 10q-.425 0-.713.288T11 11v3.2l-.9-.9q-.275-.275-.7-.275t-.7.275q-.275.275-.275.7t.275.7l2.6 2.6q.15.15.325.212t.375.063Z"/></svg>